<svg width="196" height="56" fill="none" xmlns="http://www.w3.org/2000/svg"><g clip-path="url(#a)"><path d="M174.219 55.938c-20.236-7.105-20.821-26.919-20.821-29.155V1.863l.761.374c2.509 1.233 5.162 1.857 7.887 1.857 4.018 0 8.064-1.314 12.059-3.908l.288-.186.287.186c3.997 2.594 8.044 3.908 12.029 3.908 2.748 0 5.414-.624 7.922-1.857l.76-.373v24.92c0 2.235-.584 22.05-20.821 29.154l-.175.062-.176-.062Z" fill="#fff"/><path d="M194.864 26.783V2.71a18.409 18.409 0 0 1-8.155 1.912c-4.089 0-8.225-1.339-12.316-3.994-4.089 2.655-8.225 3.994-12.315 3.994-3.266.006-6.017-.863-8.152-1.912v24.074c0 5.743 2.522 22.358 20.468 28.659 17.948-6.301 20.47-22.916 20.47-28.659Z" fill="#002F6C"/><path d="M165.971 27.457c.228 0 .421.032.594-.007.67-.155 1.255-.457 1.62-1.07.149-.256.275-.53.418-.786.125-.224.242-.458.396-.654.422-.53 1.13-.595 1.639-.157.17.144.305.33.434.516.25.361.471.743.724 1.103.134.193.293.37.463.534.295.288.652.465 1.066.501.313.03.629.03.961.046 0-.104.012-.17 0-.235-.385-2.012-.402-2.721-.807-4.725-.182-.908-.033-1.727.473-2.493.149-.225.313-.442.498-.653-.247 1.042-.013 2.046.177 3.05.381 1.98.411 2.656.791 4.638.022.12.052.237.075.35.229.072.976.084 1.379.022.033-.131.07-.277.103-.422.146-.621.308-1.233.599-1.802a4.02 4.02 0 0 1 .403-.653c.636-.82 1.638-1.072 2.591-.656.244.105.48.237.699.39.92.633 1.95.89 3.051.912.334.007.677-.008 1.015-.013h.249c-.087.141-.154.252-.226.358-.211.317-.429.627-.63.95-.086.141-.187.186-.354.173-.259-.015-.526-.003-.786-.003-.02.503.157.76.589.81.68.077 1.348.036 1.996-.229a1.94 1.94 0 0 0 .919-.741c.154-.238.285-.494.436-.738.139-.229.265-.466.432-.67.442-.546 1.163-.592 1.684-.12.106.1.199.213.278.33.404.571.75 1.177 1.012 1.823.317.785.317 1.56-.123 2.305-.105.176-.201.353-.301.527-.028-.003-.056.004-.062-.006-.208-.35-.537-.533-.904-.647-.362-.111-.732-.198-1.094-.312a8.74 8.74 0 0 1-.719-.273c-.339-.145-.514-.425-.573-.782l-.044-.346c-.067.079-.118.12-.147.177-.421.767-1.068 1.157-1.947 1.198-.4.02-.798.031-1.185-.085-.501-.143-.72-.428-.689-.95.018-.273.095-.541.151-.81.031-.139.077-.277.119-.424-.247-.057-.463.017-.681.057-.734.13-1.415.42-2.083.74-.871.41-1.74.83-2.669 1.103-.264.08-.531.163-.804.21-.208.033-.298.14-.326.332-.039.275-.092.547-.136.818-.018.088-.041.174-.075.323-.142-.472-.07-.883-.051-1.324h-.804c.749 4.303 1.643 8.562 2.409 12.517.098-.06.175-.091.226-.146.419-.408.858-.798 1.238-1.234.604-.702.688-1.791.236-2.594-.154-.277-.336-.537-.498-.81-.136-.23-.272-.46-.391-.7-.379-.8-.333-1.588.119-2.346.097-.165.213-.32.318-.484.024.007.041.012.065.013 0 .117-.006.234.002.35.033.414.175.798.378 1.16.192.349.395.694.59 1.041.671 1.207.635 2.432.037 3.646-.535 1.08-1.182 2.089-2.068 2.924a.456.456 0 0 0-.151.349 4.03 4.03 0 0 1-.622 2.033c-.191.313-.386.62-.604.923.147-.716.254-1.425.203-2.211-.124.087-.214.145-.301.208a8.504 8.504 0 0 1-1.944 1.112c-.717.288-1.449.34-2.207.24-1.81-.237-3.872-.757-5.582-1.378-1.991-.725-4.553-2.07-5.802-3.11.113.044 4.896 2.808 11.728 2.808 1.284-.083 2.514-.367 3.676-.932.077-.036.149-.076.218-.114.029-.016.046-.039.1-.083a2981.14 2981.14 0 0 0-2.54-13.19c-.121-.008-.221-.016-.321-.02-.195-.003-.388-.001-.585-.005-.491-.017-.959-.118-1.354-.434-.031-.023-.07-.037-.082-.043-.182.438-.36.867-.557 1.336-.082-.092-.131-.139-.175-.19a1.236 1.236 0 0 0-.631-.417c-.394-.113-.799-.195-1.19-.31a9.717 9.717 0 0 1-.9-.309c-.317-.12-.464-.386-.536-.702l-.077-.384c-.076.127-.123.213-.179.287-.193.24-.366.5-.584.71-.328.32-.752.445-1.21.456-.225.002-.454.006-.678-.003-.151-.004-.241.053-.328.176a3.74 3.74 0 0 1-.723.815 2.428 2.428 0 0 1-.112-.154c-.36-.566-.881-.837-1.549-.834-.914.002-1.828 0-2.741 0-.393 0-.78.01-1.171-.007a2.47 2.47 0 0 1-.632-.104c-.443-.148-.657-.46-.67-.928-.007-.399.172-1.02.444-1.476.029.047.054.082.072.124.211.515.617.78 1.143.871.262.048.531.067.796.07 1.305.003 2.61-.006 3.912-.003.19 0 .396 0 .578.057.208.065.396.191.607.293.002-.021.025-.081.017-.142a1.985 1.985 0 0 0-.467-1.115c-.283-.32-.643-.458-1.068-.455a387.64 387.64 0 0 1-4.218-.003 3.007 3.007 0 0 1-.817-.116c-.665-.2-1.027-.73-.991-1.417.02-.467.177-.895.457-1.322.02.115.048.181.054.253.072.603.493 1.105 1.349 1.133.583.018 1.171.003 1.754.003.938 0 1.87-.003 2.805.003.172 0 .35.007.519.039.876.177 1.436.836 1.469 1.727.008.202-.015.408-.033.611-.008.134-.026.265-.044.427Zm11.327-.12c.663.064 3.465-.806 3.915-1.207-.653-.355-1.328-.647-2.068-.743-.545-.069-.991.118-1.305.575-.282.41-.431.873-.542 1.375Zm-5.673.38c-.435-.478-.828-.922-1.236-1.35a1.639 1.639 0 0 0-.434-.284.718.718 0 0 0-.653-.003 1.36 1.36 0 0 0-.59.51c.066.196.19.334.362.41.211.097.431.188.66.245.601.16 1.207.304 1.891.472Zm18.608.076c-.29-.41-.544-.81-.839-1.17-.535-.651-1.035-.666-1.634-.075-.045.046-.087.106-.123.157.054.231.2.37.393.461.154.075.321.136.488.18.549.152 1.102.29 1.715.447ZM175.24 16.964c-.254.401-.495.79-.755 1.203-.087-.098-.146-.151-.192-.213-.278-.352-.64-.549-1.084-.564-.452-.02-.903-.006-1.353-.013-.136-.003-.203.066-.27.165-.174.264-.359.52-.56.799-.049-.064-.082-.098-.108-.142-.272-.522-.732-.753-1.294-.809-.164-.013-.329-.01-.493-.01-1.326-.003-2.651.003-3.974-.003a4.02 4.02 0 0 1-.763-.076c-.614-.133-1.076-.483-1.409-1.014-.286-.459-.44-.966-.545-1.491-.013-.06-.021-.122-.039-.182-.005-.014-.025-.025-.061-.06-.024.066-.036.126-.057.188-.051.165-.097.333-.161.496-.186.459-.527.693-1.025.683-.268-.004-.535-.02-.799-.039a6.306 6.306 0 0 0-1.598.039c-.357.06-.688.192-1.015.442 0-.089-.007-.136 0-.18.175-.999.501-1.937 1.104-2.77.407-.558.92-.963 1.573-1.178.439-.149.886-.269 1.325-.401.095-.026.19-.06.295-.095-.056-.555-.192-1.065-.333-1.58-.039-.136-.152-.156-.257-.191-.295-.093-.591-.17-.884-.27a6.91 6.91 0 0 1-1.662-.788 3.4 3.4 0 0 1-.955-.904 1.337 1.337 0 0 1-.185-.38c1.503.6 3.049.982 4.674 1.175.149.862.293 1.712.44 2.566.342-.13.473-.257.95-.949.075.253.025.467-.026.677-.097.388-.329.706-.627.966-.176.151-.228.315-.205.534.065.562.126 1.121.313 1.657.068.185.141.362.235.534.392.718.996 1.091 1.826 1.091h4.559c.143 0 .288-.001.429.016.593.063.724.127 1.297.608.082-.14.118-.286.068-.434-.076-.22-.152-.443-.273-.646-.183-.318-.417-.606-.606-.923a6.046 6.046 0 0 1-.467-.93c-.234-.604-.165-1.203.107-1.787.16-.342.304-.55.506-.724.013.19.016.372.044.55.062.398.241.758.437 1.106.157.278.318.555.472.828.378.659.583 1.354.485 2.118-.009.057-.002.118-.002.209.801.01 1.598-.011 2.363.396-.008-.133-.002-.216-.017-.303-.381-1.99-.755-3.98-1.136-5.972-.082-.453-.183-.903-.254-1.358-.088-.59-.037-1.165.223-1.712.198-.417.447-.799.788-1.134-.023.143-.043.288-.061.433-.1.714.02 1.408.153 2.101.373 1.983.751 3.964 1.126 5.945.03.148.044.303.075.454.135.673.575 1.071 1.263 1.147.143.013.287.012.434.012l10.624.001c.154 0 .31-.001.459.016.45.041.869.16 1.212.527.057-.184.016-.322-.016-.454-.194-.709-.669-1.156-1.345-1.407a3.162 3.162 0 0 0-1.12-.182c-1.874.003-3.757.007-5.635 0-.645-.004-1.292-.039-1.939-.058a2.965 2.965 0 0 1-1.662-.58 4.42 4.42 0 0 1-1.387-1.618 1.459 1.459 0 0 1-.103-1.131 8.987 8.987 0 0 1 1.236-2.53c.018-.025.033-.048.057-.072.372-.462.618-.546 1.181-.362a16.82 16.82 0 0 0 2.442.617c1.618.277 3.242.342 4.878.178a16.78 16.78 0 0 0 4.762-1.17c.018-.01.042-.005.1-.01-.043.059-.069.102-.102.141-.033.04-.072.07-.108.11-.673.636-1.462 1.09-2.314 1.436-1.118.457-2.286.718-3.483.874a19.98 19.98 0 0 1-3.501.119c-1.074-.051-2.12-.243-3.155-.509-.13-.031-.261-.066-.39-.084-.4-.059-.608.178-.511.57.028.109.07.216.124.316.639 1.199 1.604 1.97 2.943 2.264.19.04.388.04.581.04 2.465.003 4.931.021 7.392-.004 1.5-.015 2.376 1.186 2.597 2.201.101.453-.007.894-.203 1.312-.277.584-.696 1.059-1.161 1.5-.182.173-.377.334-.591.523-.036-.081-.056-.126-.074-.17-.144-.36-.408-.583-.766-.707a3.175 3.175 0 0 0-1.087-.196c-3.487.004-6.979.006-10.469-.003a4.01 4.01 0 0 1-.94-.126c-.204-.05-.386-.184-.585-.285Zm-13.05-4.372c-.801.363-1.595.47-2.366.682-.575.157-.971.547-1.256 1.058-.028.056-.041.118-.082.234.645-.275 1.272-.259 1.896-.241.328.006.657.018.986.018.141 0 .287-.013.426-.046.313-.075.457-.24.455-.565 0-.354-.033-.709-.059-1.14Zm.791 30.266c6.114 6.577 11.026 7.161 11.492 7.161 2.938 0 6.307-2.54 8.599-4.567a4.393 4.393 0 0 0 1.061-1.223c.128-.22.249-.448.357-.678.573-1.252.783-2.557.539-3.924-.04-.205-.092-.413-.139-.643.653-.02 1.267-.017 1.873.093.421.076.732.314.951.674.04.068.081.132.143.23.494-.67.953-1.317 1.19-2.097.151-.504.239-1.023.097-1.543a6.418 6.418 0 0 0-.408-1.087c-.155-.332-.363-.643-.545-.962-.211-.38-.381-.772-.429-1.207-.01-.127-.016-.255-.031-.452-.398.515-.667 1.005-.724 1.594-.056.609.126 1.156.442 1.665.226.365.486.712.704 1.078.128.206.228.434.311.664a.509.509 0 0 1-.062.492c-.049-.034-.075-.047-.098-.07-.29-.322-.657-.472-1.089-.5a9.568 9.568 0 0 0-.612-.03c-.554-.009-1.109 0-1.666-.017-.617-.018-1.061-.311-1.347-.867-.156-.31-.328-.613-.503-.914-.349-.596-.678-1.194-.629-1.933-.516.613-.84 1.282-.712 2.104.075.483.299.907.55 1.32.403.667.796 1.337 1.207 2.002.709 1.138.912 2.373.74 3.686a.702.702 0 0 1-.247.472c-.998.888-1.935 1.507-3.228 2.346-1.448.94-4.171 2.263-7.177 2.263-4.496.001-10.597-5.132-10.61-5.13Zm4.659-6.326c.008-.903-.5-1.6-1.325-1.808a3.054 3.054 0 0 0-.76-.09c-1.673-.007-3.347 0-5.019-.007-.769-.003-1.228-.395-1.369-1.143-.011-.06-.029-.12-.055-.222-.238.38-.382.737-.428 1.13-.111.927.4 1.574 1.331 1.688.202.023.41.034.613.034 1.12.004 2.24.003 3.36.003.47 0 .945-.013 1.415.007.807.034 1.508.941 1.357 1.773-.296-.386-.712-.422-1.136-.435-.064-.005-.126-.005-.187-.005-.768 0-1.542.005-2.31 0-.586 0-1.169.005-1.754-.01-.442-.011-.802-.175-.989-.605-.005-.01-.033-.01-.046-.013-.218.372-.362.806-.38 1.122-.023.447.13.704.562.833.252.075.524.123.786.126 1.025.014 2.055.006 3.077.006.686 0 1.238.258 1.608.85.031.049.072.09.133.168.232-.272.459-.51.65-.774.126-.182.262-.244.481-.24.41.01.824.01 1.23-.02.601-.047 1.117-.265 1.452-.804.012-.016.043-.025.046-.03.09.287.144.582.27.845.241.492.521.967.796 1.462.534-.472 1.051-.964 1.369-1.662.206.256.403.47.555.707.154.247.259.522.398.809.288-.32.573-.625.845-.945.296-.343.557-.707.737-1.126.239-.558.263-1.121-.03-1.66a12.143 12.143 0 0 0-.684-1.127c-.382-.549-.693-1.11-.56-1.837-.051.029-.082.038-.1.054-.763.9-.879 2.024-.203 2.971.214.299.46.58.666.885.131.19.238.405.313.626.074.212.038.43-.172.638-.206-.518-.524-.923-.84-1.32-.108-.138-.208-.278-.316-.418-.634-.848-.724-1.758-.306-2.723l.1-.242c-.022-.01-.041-.021-.061-.031-.175.248-.358.492-.519.753-.627.996-.786 2.045-.332 3.16.07.17.124.35.167.53.038.161.013.316-.151.445-.465-.561-.753-1.169-.822-1.871-.087-.87.18-1.637.689-2.33.074-.103.148-.204.225-.305a.327.327 0 0 0-.216.06c-.562.372-.991.856-1.24 1.488-.072.182-.137.366-.216.543-.295.634-.802.972-1.495 1.013-.357.019-.716.006-1.079 0-.067 0-.136-.016-.205-.025.026-.314.072-.608.074-.9Zm16.318-17.203c-.068.04-.143.077-.212.12-1.331.77-2.747 1.35-4.246 1.676a6.049 6.049 0 0 0-2.13.904l-.161.12c.117.03.216.022.313.006.486-.095.968-.18 1.448-.292 1.074-.235 2.135-.504 3.154-.92.63-.257 1.177-.63 1.611-1.151.107-.133.19-.28.285-.42a1.064 1.064 0 0 1-.062-.043ZM171.419 7.454a4.097 4.097 0 0 0-.229.087 15.407 15.407 0 0 1-4.402 1.201c-.727.078-1.41.24-2.045.594-.123.069-.251.122-.38.18.082.04.152.047.213.04l1.135-.09a24.901 24.901 0 0 0 3.28-.505c.658-.15 1.277-.384 1.822-.788.254-.193.485-.405.667-.691-.04-.021-.053-.03-.061-.027Zm14.565 15.438c.534-.014 1.084-.008 1.632-.047.775-.05 1.53-.21 2.231-.56.415-.21.777-.49 1.027-.888.064-.1.122-.208.164-.317.066-.17.006-.27-.175-.284-.155-.01-.313.01-.468.01-.292 0-.409-.066-.488-.343a1.447 1.447 0 0 1-.073-.54c.037-.376.374-.552.706-.365.423.238.675.614.663 1.098-.026 1.024-.483 1.709-1.397 2.165-.198.096-.435.138-.663.169-.991.128-1.979.116-2.963-.047-.071-.012-.141-.037-.196-.051Zm4.869-2.583c-.113-.19-.2-.263-.368-.328-.265-.106-.399-.029-.463.282.269.135.554-.003.831.046Zm-32.744-1.307c-.28-.348-.488-.699-.393-1.159l.807.796c.382-.293.722-.567.914-1.024.19.613-.234.914-.57 1.266.311.308.691.55.798.971.093.359.088.744.132 1.19-.435-.226-.799-.127-1.164.024a.937.937 0 0 1-.177.048c-.326.06-.509-.033-.637-.337-.229-.538-.156-1.061.134-1.554.04-.07.092-.133.156-.221Zm.29.258c-.252.194-.444.388-.504.673a.444.444 0 0 0 .445.553c.113-.003.221-.037.331-.067.263-.065.524-.133.822-.215-.241-.435-.726-.608-1.094-.944Zm7.761 3.819c-.003.183.013.364.119.521.117.163.245.32.391.513.148-.225.273-.42.417-.642l.413.449c.133-.25.277-.486.389-.738a.625.625 0 0 0-.087-.651c-.06-.08-.119-.16-.185-.232-.179-.193-.38-.376-.417-.67-.167.256-.205.515-.078.777.058.116.15.214.234.31.092.105.199.195.286.304.072.088.134.19.084.253-.156-.125-.314-.241-.462-.37-.288-.244-.432-.552-.372-.937.002-.008-.015-.02-.031-.046-.197.372-.277.738-.094 1.131.046.102.104.203.145.311.017.04-.004.096-.006.165-.456-.357-.537-.791-.313-1.507a1.55 1.55 0 0 0-.433 1.059Zm.916-10.405c.032.026.074.049.104.083.099.108.195.221.303.345.104-.172.219-.331.31-.502.226-.428.193-.688-.124-1.057-.096-.109-.209-.21-.294-.332-.075-.113-.125-.252-.189-.38-.211.352-.181.704.087.992.117.126.248.238.359.372.074.088.15.197.099.255-.181-.145-.368-.278-.54-.432a.867.867 0 0 1-.305-.77c.005-.039-.004-.079-.012-.17-.239.452-.292.856-.058 1.266a.875.875 0 0 1 .092.2c.013.045-.001.098-.007.2-.483-.465-.547-.959-.314-1.518-.257.252-.367.56-.421.898-.083.48.189.806.511 1.17.137-.217.262-.411.399-.62Zm19.482 27.227a.736.736 0 0 0 .028 1.47.724.724 0 0 0 .727-.748.724.724 0 0 0-.755-.722ZM160.199 10.16a.735.735 0 0 0-.729.751.725.725 0 0 0 .727.721.726.726 0 0 0 .747-.732.74.74 0 0 0-.745-.74Zm10.706 22.849a.732.732 0 0 0-.724-.724.752.752 0 0 0-.747.743.736.736 0 0 0 .747.735.722.722 0 0 0 .724-.755Zm-2.478-1.761a.73.73 0 0 0 .681.765.737.737 0 1 0 .094-1.471.728.728 0 0 0-.775.706Zm.755-11.811a.754.754 0 0 0-.733-.73.753.753 0 0 0-.752.737.736.736 0 0 0 .749.739.738.738 0 0 0 .736-.746Zm-1.048 12.848a.76.76 0 0 0-.727.768c.01.388.349.715.739.713a.734.734 0 0 0 .738-.748.74.74 0 0 0-.75-.733Zm-9.756-22.125a.748.748 0 0 0-.742.746c.005.4.323.72.726.726a.717.717 0 0 0 .75-.727.732.732 0 0 0-.734-.745Zm23.544 30.606a.741.741 0 0 0-.743.74c0 .4.316.72.717.73a.716.716 0 0 0 .755-.72.73.73 0 0 0-.729-.75ZM167.158 19.44a.756.756 0 0 0-.727-.733.74.74 0 0 0-.75.733.726.726 0 0 0 .737.742.737.737 0 0 0 .74-.742Z" fill="#A7A8AA"/><path d="M3.566 16.384a.71.71 0 0 0 .719.718.696.696 0 0 0 .705-.718.69.69 0 0 0-.705-.704.696.696 0 0 0-.719.704Zm-1.99 0c0 .416.297.718.706.718.41 0 .718-.309.718-.718 0-.408-.302-.704-.718-.704s-.706.29-.706.704Zm25.101 9.002a.695.695 0 0 0-.718.704.71.71 0 0 0 .718.717.696.696 0 0 0 .706-.717.689.689 0 0 0-.706-.704Zm-2.003 0c-.415 0-.705.29-.705.704 0 .415.296.717.705.717.41 0 .719-.308.719-.717 0-.408-.303-.704-.719-.704ZM0 10.401l.537 1.025h21.646c.849 0 1.49-.3 1.817-.844.482.598 1.021.844 1.844.844.796 0 1.572-.424 1.855-1 .358.619 1.04 1 1.806 1 1.26 0 2.041-.698 2.041-1.824V5.611l-2.204.42.335.108c.512.166.512.22.512.514v2.95c0 .762-.28.837-.965.837-.846 0-1.352-.839-1.352-1.65v-2.7l-2.224.418.326.11c.54.184.54.21.54.448v2.536c0 .802-.317.838-.978.838-.803 0-1.244-.698-1.326-1.385v-2.47l-2.219.403.336.11c.54.18.54.201.54.461v2.004c0 .762-.276.838-.952.838H6.206c-.008-3.424-.89-5.088-2.7-5.088-.977 0-1.583.437-2.092.91l-.018.018.247 1.327.124-.181C2.234 6.379 2.889 5.92 3.3 5.92c.939 0 1.415 1.297 1.415 3.854v.627H0Zm111.676-6.072c.41 0 .719-.309.719-.718 0-.407-.302-.703-.719-.703-.415 0-.705.289-.705.703 0 .416.296.718.705.718ZM43.637 7.376v1.867c0 1.132.365 2.245 1.003 3.053.734.931 1.768 1.423 2.99 1.423 1.951 0 3.286-1.162 3.864-3.364.323.537 1.014 1.071 1.748 1.071h.989c1.25 0 2.028-.699 2.028-1.824v-3.99l-2.224.418.342.11c.538.17.538.229.538.513v2.91c0 .785-.313.827-.911.838h-1.03c-.85 0-1.33-.826-1.348-1.602V5.61l-2.476.108.185.08c.257.112.923.469.923.777.004.051.007 1.903.007 2.666 0 1.436-.342 3.843-2.635 3.843-2.293 0-2.636-2.408-2.636-3.843V6.31l-2.514.11.226.08c.01.003.93.335.93.877Zm3.85-1.676c.41 0 .718-.308.718-.716s-.302-.704-.718-.704-.706.289-.706.704.297.717.706.717Zm66.192-1.371a.696.696 0 0 0 .706-.718.69.69 0 0 0-.706-.703.695.695 0 0 0-.718.703.71.71 0 0 0 .718.718ZM27.233 3.53a.65.65 0 0 0 .666-.664.65.65 0 0 0-.666-.664.643.643 0 0 0-.665.664c0 .385.28.664.665.664Zm-.989 1.493c.41 0 .72-.309.72-.718 0-.407-.303-.703-.72-.703-.415 0-.705.289-.705.703 0 .416.297.718.705.718Zm8.411 8.572-.507.135.523.042c.443.036.77.054.97.054 3.054 0 3.31-2.641 3.31-5.116V5.612l-2.237.419.342.109c.538.17.538.23.538.514v3.052c-.111 2.612-1.207 3.424-2.939 3.889ZM27.53 4.306a.71.71 0 0 0 .718.717.696.696 0 0 0 .705-.717.689.689 0 0 0-.705-.704.695.695 0 0 0-.719.704Z" fill="#75787B"/><path d="M33.815 3.343v8.083h1.357V2.314l-2.2.419.33.11c.513.17.513.227.513.5Zm82.259 19.91c.489-.576.769-1.365.769-2.165 0-1.537-1.019-3.17-2.91-3.17-1.889 0-2.91 1.633-2.91 3.17 0 1.524 1.02 3.143 2.91 3.143a2.726 2.726 0 0 0 2.141-.979Zm-2.14-4.688c.973 0 1.446.825 1.446 2.523 0 1.665-.486 2.509-1.446 2.509-.968 0-1.459-.844-1.459-2.51 0-1.697.477-2.522 1.459-2.522Zm8.012-2.918c.512.17.512.228.512.501v8.083h1.358V15.12l-2.201.42.331.108Zm-3.474 3.297c.539.171.539.23.539.514v3.052c-.112 2.612-1.208 3.424-2.94 3.89l-.505.134.522.043c.445.035.771.053.969.053 3.055 0 3.311-2.64 3.311-5.116v-3.098l-2.238.42.342.108Zm-6.222-2.788c0 .416.297.717.705.717.41 0 .719-.308.719-.717 0-.407-.302-.704-.719-.704-.415 0-.705.29-.705.704Zm16.518 1.961c-.978 0-1.584.438-2.092.911l-.019.018.247 1.326.124-.18c.467-1.008 1.123-1.467 1.534-1.467.939 0 1.415 1.296 1.415 3.853v.628h-4.672l.536 1.025h5.627v-.628c0-3.589-.934-5.486-2.7-5.486Zm14.117-2.469c.524.166.524.217.524.5v6.22c0 .762-.279.838-.965.838h-.561c-.877 0-1.419-.837-1.419-1.611v-6.503l-2.189.417.318.111c.527.185.527.22.527.448v6.34c0 .765-.279.798-.911.798h-1.781v-6.159l-2.203.417.318.112c.528.183.528.253.528.514v5.115h-2.16l-.415 1.026h5.953c.983 0 1.67-.327 1.994-.949.449.613 1.034.949 1.654.949h.628c1.259 0 2.041-.699 2.041-1.823v-7.29l-2.224.422.343.108Zm-89.886 3.389c-1.926.014-2.4 1.207-2.719 2.426-.305 1.084-.596 1.743-2.064 1.743H31.17c-.88 0-1.407-.82-1.407-1.611v-3.179l-2.203.416.32.111c.527.185.527.22.527.448v3.017c0 .765-.28.798-.912.798H6.39l-.049-.004c-.398-.033-.562-.047-.562-.621v-4.552l-.913.547-.178-.116c-.313-.203-.837-.543-1.619-.543-1.771 0-2.83 1.592-2.83 3.13 0 1.756 1.144 3.184 2.55 3.184 1.103 0 1.658-.733 1.871-1.113.152 1.003.964 1.102 1.723 1.113h21.353c.691 0 1.588-.167 1.994-.948.45.612 1.034.948 1.654.948h17.582c.62 0 1.121-.174 1.491-.518.39.448.981 1.091 2.21 1.091 1.919 0 2.923-1.42 2.923-2.823a3.35 3.35 0 0 0-.656-1.941c-.344-.457-.96-1.003-1.934-1.003Zm-1.625 2.873c.032-.111.062-.221.097-.333.244-.95.497-1.932 1.302-1.932h.05c.936.038 1.355 1.234 1.355 2.402 0 1.144-.674 2.11-1.472 2.11-.79 0-1.33-.621-1.651-.99l-.086-.116c.191-.377.298-.756.401-1.124l.004-.017ZM3.068 18.565c.688 0 1.392.274 1.392 2.31 0 .686-.024 1.19-.143 1.586-.205.68-.75 1.136-1.356 1.136-.492 0-1.326-.52-1.326-2.47 0-1.891.772-2.562 1.433-2.562Zm127.721-5.989a.696.696 0 0 0-.719.704.71.71 0 0 0 .719.717.695.695 0 0 0 .705-.717.689.689 0 0 0-.705-.704Zm-30.325 3.058c.538.171.538.228.538.5v6.233c0 .763-.264.838-.911.838h-2.393c-.036-1.253-.383-2.73-.982-3.59-.655-.943-1.544-1.441-2.567-1.441-1.375 0-2.018.738-2.509 1.534-.189.29-.312.39-.5.49l-.081.043.696 1.27.062-.208c.28-.927.95-2.482 2.292-2.482.926 0 2.024 1.383 2.086 4.384h-8.32V21.33c0-1.24-1.089-2.418-2.509-2.746 1.273-.444 2.949-1.366 3.017-2.072l.003-.034-1.06-1.438-.019.244c-.101 1.355-2.59 3.129-3.45 3.129h-.37l-.426.647h1.397c1.567 0 1.98 1.51 1.98 2.31v1.835H62.045v-4.627h-1.106c-2.612 0-3.993 1.365-3.993 3.244 0 1.328 1.047 2.41 2.333 2.41h1.339c-.48 1.474-1.634 1.916-2.7 2.152l-1.038.172.724.061c.495.041.917.067 1.103.067 1.666 0 2.78-.847 3.225-2.453h38.388c1.251 0 2.028-.698 2.028-1.823v-7.302l-2.224.42.341.108Zm-39.835 3.538h.056v3.71c0 .056.002.104.003.148.002.062.004.116 0 .172l-1.315.004c-.713 0-1.085-.736-1.085-1.464 0-1.427 1.206-2.57 2.341-2.57Zm43.592-3.525c.513.17.513.228.513.501v8.083h1.357V15.12l-2.2.42.33.108Zm-49.639-3.06a.695.695 0 0 0-.719.704.71.71 0 0 0 .719.716.695.695 0 0 0 .705-.716.689.689 0 0 0-.705-.704Zm73.496.693c0 .415.297.717.706.717a.702.702 0 0 0 .718-.717c0-.408-.302-.704-.718-.704s-.706.29-.706.704Zm-25.272-7.047c-1.925.013-2.399 1.206-2.719 2.425-.305 1.084-.596 1.743-2.064 1.743h-2.609c-.035-1.253-.383-2.731-.981-3.591-.656-.942-1.544-1.44-2.568-1.44-1.375 0-2.018.737-2.507 1.533-.19.291-.314.39-.502.49l-.08.043.695 1.27.062-.208c.28-.927.95-2.482 2.292-2.482 1.38 0 2.04 2.352 2.085 4.384h-7.854c-.618 0-1.012-.246-1.203-.753.025-.144.037-.302.037-.472 0-1.233-.895-2.942-2.576-2.942-2.051 0-2.384 1.288-2.706 2.534-.177.677-.404 1.112-.759 1.454-.131.11-.323.15-.44.175l-12.25.004c-.008-3.423-.891-5.088-2.7-5.088-.978 0-1.583.438-2.092.911l-.018.017.247 1.327.124-.18c.467-1.008 1.123-1.467 1.534-1.467.94 0 1.415 1.296 1.415 3.853v.628h-4.673l.536 1.025h17.854c.611 0 1.032-.154 1.397-.513.464.569 1.056 1.086 2.184 1.086 1.132 0 2.05-.505 2.53-1.39.487.58 1.021.817 1.826.817h12.448c.62 0 1.121-.174 1.491-.517.359.425.956 1.09 2.211 1.09 1.91 0 2.91-1.42 2.91-2.823a3.36 3.36 0 0 0-.649-1.94c-.342-.457-.953-1.003-1.928-1.003Zm-1.611 2.795.068-.255c.268-.994.522-1.932 1.316-1.932h.049c.937.038 1.356 1.234 1.356 2.402 0 1.143-.674 2.11-1.472 2.11-.792 0-1.331-.623-1.651-.992l-.087-.114c.206-.406.313-.812.417-1.204l.004-.015ZM80.72 8.95l.024-.092.029-.087c.243-.95.496-1.93 1.301-1.93h.05c.937.037 1.356 1.233 1.356 2.401 0 1.144-.675 2.11-1.473 2.11-.83 0-1.439-.744-1.695-1.056a.355.355 0 0 0-.037-.059c.22-.436.334-.869.445-1.287Zm34.241 6.502a.696.696 0 0 0-.719.704.71.71 0 0 0 .719.717.695.695 0 0 0 .705-.717.69.69 0 0 0-.705-.704Zm-2.788-4.026c1.104 0 1.658-.733 1.872-1.113.152 1.003.964 1.102 1.722 1.113h16.041c.691 0 1.588-.167 1.994-.948.449.612 1.034.948 1.654.948h1.283c.983 0 1.67-.327 1.993-.948.45.612 1.039.948 1.667.948h4.925l-.433-1.025h-.124V8.526c0-1.24-1.089-2.418-2.509-2.746 1.273-.444 2.948-1.366 3.016-2.072l.003-.035-1.06-1.436-.018.243c-.102 1.355-2.59 3.129-3.451 3.129h-.369l-.427.647h1.397c.647 0 1.177.273 1.532.79.281.41.448.977.448 1.52V10.4h-3.158c-.876 0-1.419-.836-1.419-1.611V2.287l-2.19.418.319.11c.528.185.528.22.528.448v6.34c0 .765-.28.798-.912.798h-1.256c-.88 0-1.406-.82-1.406-1.611V5.611l-2.203.416.319.111c.527.185.527.22.527.448v3.017c0 .766-.28.798-.912.798h-15.792l-.049-.004c-.398-.033-.563-.046-.563-.62V5.222l-.912.547a27.485 27.485 0 0 0-.176-.113c-.313-.204-.837-.544-1.621-.544-1.772 0-2.83 1.591-2.83 3.13.001 1.755 1.144 3.183 2.55 3.183Zm.281-5.666c.688 0 1.392.274 1.392 2.31 0 .685-.024 1.19-.143 1.586-.206.68-.75 1.136-1.357 1.136-1.046 0-1.325-1.552-1.325-2.47 0-1.181.375-2.562 1.433-2.562Zm23.276 21.37h.632v.46h-2.405l.165-.46h.516a1.275 1.275 0 0 1-.438-.919c0-.636.463-1.028 1.1-1.028.497 0 .885.323.885.737 0 .268-.149.404-.444.404-.215 0-.432-.116-.432-.337 0-.116.065-.231.168-.305a.292.292 0 0 0-.204-.078c-.214 0-.33.28-.33.543 0 .42.264.982.787.982ZM.472 38.973 1.2 33.05c.024-.132.036-.358.036-.465 0-.274-.072-.417-.334-.644h1.612l2.437 5.494 2.388-5.494h1.589c-.275.226-.335.357-.335.68 0 .106 0 .178.024.357l.789 5.887c.047.405.071.5.155.644.06.118.131.202.31.38H7.948c.227-.178.299-.357.299-.703 0-.119 0-.262-.012-.357l-.669-5.077-2.735 6.28-2.771-6.28-.657 5.291c-.012.06-.012.155-.012.227 0 .262.048.369.299.62H.006c.298-.191.406-.406.466-.918Zm14.732-7.163c2.46 0 4.288 1.74 4.288 4.089 0 2.347-1.851 4.135-4.276 4.135S11 38.306 11 35.982c0-2.42 1.755-4.171 4.204-4.171Zm.036 7.353c1.756 0 2.986-1.346 2.986-3.265 0-1.883-1.242-3.194-3.045-3.194-1.768 0-2.939 1.3-2.939 3.29 0 1.859 1.242 3.17 2.998 3.17Zm6.143-.178v-6.126c0-.5-.096-.715-.418-.917h2.018c-.31.202-.418.417-.418.917v2.288h3.595V32.86c0-.5-.096-.715-.418-.917h2.019c-.311.202-.418.417-.418.917v6.126c0 .488.107.715.418.905h-2.019c.322-.19.418-.417.418-.905V36.03h-3.595v2.956c0 .488.108.715.418.905h-2.018c.322-.19.418-.417.418-.905Zm8.064.321 2.735-6.434c.096-.239.156-.43.156-.56 0-.132-.06-.239-.191-.37h1.397l2.986 7.019c.095.227.155.334.239.465.12.179.19.25.454.465h-2.055c.167-.167.227-.263.227-.417 0-.108-.048-.263-.131-.465l-.896-2.157h-2.83l-.944 2.276a1 1 0 0 0-.084.381c0 .143.048.239.215.381h-1.78c.275-.19.383-.322.502-.584Zm4.55-3.336-1.038-2.538-1.051 2.538h2.09Zm4.676 3.003.729-5.922c.024-.132.036-.358.036-.465 0-.274-.072-.417-.335-.644h1.613l2.436 5.494 2.389-5.494h1.588c-.274.226-.334.357-.334.68 0 .106 0 .178.024.357l.788 5.887c.048.405.072.5.155.644.06.118.132.202.31.38H46.15c.227-.178.299-.357.299-.703 0-.119 0-.262-.012-.357l-.67-5.077-2.734 6.28-2.772-6.28-.656 5.291c-.012.06-.012.155-.012.227 0 .262.047.369.298.62h-1.684c.299-.191.407-.406.466-.918Zm11.012 0 .729-5.922a3.44 3.44 0 0 0 .035-.465c0-.274-.071-.417-.334-.644h1.612l2.437 5.494 2.388-5.494h1.589c-.275.226-.334.357-.334.68 0 .106 0 .178.023.357l.789 5.887c.048.405.072.5.155.644.06.118.132.202.31.38h-1.922c.227-.178.298-.357.298-.703 0-.119 0-.262-.012-.357l-.669-5.077-2.735 6.28-2.77-6.28-.658 5.291c-.012.06-.012.155-.012.227 0 .262.048.369.299.62h-1.684c.299-.191.406-.406.466-.918Zm14.616.024c.944 0 1.242-.072 1.72-.43l.072-.059-.37 1.383H60.42c.322-.19.418-.417.418-.906v-6.126c0-.5-.096-.715-.418-.917h5.028l.144 1.24-.049-.037c-.37-.262-.549-.31-1.122-.31h-2.4v2.205h2.412c.418 0 .477 0 .62-.071l.06 1.239c-.167-.143-.239-.179-.358-.214-.12-.048-.322-.06-.692-.06H62.02v3.063h2.281Zm3.401-.012v-6.126c0-.5-.096-.715-.418-.917h3.057c.956 0 1.672.155 2.305.5 1.218.644 1.97 1.978 1.97 3.468 0 .906-.298 1.824-.8 2.48a3.69 3.69 0 0 1-.979.893c-.717.429-1.445.607-2.496.607h-3.058c.323-.19.419-.417.419-.905Zm2.866.012c1.732 0 2.771-1.156 2.771-3.075 0-1.93-1.039-3.086-2.77-3.086h-1.685v6.16h1.684Zm9.245-.012v-6.126c0-.5-.096-.715-.419-.917h3.046c1.565 0 2.52.739 2.52 1.942a1.6 1.6 0 0 1-.453 1.144c-.12.108-.216.179-.538.381.478.18.645.263.908.5.406.358.633.919.633 1.562 0 .763-.31 1.418-.872 1.847-.55.417-1.195.572-2.425.572h-2.819c.323-.19.419-.417.419-.905Zm1.982-3.945c.8 0 1.052-.023 1.374-.166.346-.155.538-.489.538-.93 0-.727-.502-1.108-1.482-1.108h-1.23v2.204h.8Zm.132 3.957c.609 0 .943-.012 1.23-.084.68-.143 1.099-.69 1.099-1.418 0-.5-.191-.906-.573-1.191-.359-.263-.8-.37-1.589-.37h-1.098v3.063h.93Zm5.417-.012v-6.126c0-.5-.096-.715-.418-.917h2.018c-.31.202-.418.417-.418.917v6.126c0 .488.108.715.418.905h-2.018c.322-.19.418-.417.418-.905Zm3.582 0v-6.066c0-.5-.12-.774-.418-.977h1.422l4.49 5.303v-4.386c0-.5-.096-.715-.418-.917h1.78c-.31.202-.418.417-.418.917v7.174l-5.494-6.47v5.422c0 .488.107.715.418.905h-1.78c.322-.19.418-.417.418-.905Zm12.015 0v-6.126c0-.5-.095-.715-.418-.917h1.935c.144 0 .371.012.681.012.824.011 1.111.035 1.517.154.788.239 1.301.942 1.301 1.8 0 1.001-.597 1.644-1.743 1.883.155.107.215.143.311.238.071.06.143.143.25.263.072.095.144.178.203.262.012.023.06.083.144.202l1.564 2.134.143.19c.18.25.287.37.443.477.143.119.227.166.621.334h-1.959l-2.078-2.908c-.299-.417-.55-.68-.812-.834-.263-.143-.442-.191-.92-.203v3.039c0 .489.108.715.418.906h-2.019c.323-.19.418-.418.418-.906Zm1.816-3.849c.394 0 .645-.024.884-.072.597-.107.991-.56.991-1.144 0-.345-.144-.643-.383-.81-.286-.214-.68-.286-1.469-.286-.167 0-.31 0-.657.012v2.276c.312.024.443.024.634.024Zm6.49 4.17 2.734-6.434c.096-.239.155-.43.155-.56 0-.132-.059-.239-.191-.37h1.398l2.986 7.019c.096.227.155.334.239.465.119.179.191.25.454.465h-2.055c.168-.167.227-.263.227-.417 0-.108-.048-.263-.132-.465l-.895-2.157h-2.83l-.944 2.276a1 1 0 0 0-.084.381c0 .143.048.239.215.381h-1.78c.276-.19.383-.322.503-.584Zm4.55-3.336-1.039-2.538-1.051 2.538h2.09Zm4.232 2.264c.813.631 1.553.894 2.521.894 1.182 0 1.958-.56 1.958-1.43 0-.394-.179-.751-.489-.954a2.583 2.583 0 0 0-.657-.322 44.18 44.18 0 0 0-.765-.273c-.8-.299-1.099-.43-1.469-.656-.597-.37-.883-.834-.883-1.478 0-1.406 1.098-2.216 3.033-2.216.466 0 .836.035 1.481.143l.191.036.179 1.382c-.358-.226-.501-.31-.728-.405a3.678 3.678 0 0 0-1.338-.274c-.967 0-1.588.428-1.588 1.096 0 .239.095.477.239.632.262.262.609.428 1.6.774 1.099.381 1.386.512 1.768.846.418.346.657.906.657 1.513 0 1.502-1.338 2.49-3.392 2.49-.622 0-1.279-.094-2.126-.285l-.192-1.513Zm7.57.751v-6.126c0-.5-.095-.715-.417-.917h2.018c-.311.202-.419.417-.419.917v2.288h3.595V32.86c0-.5-.095-.715-.417-.917h2.018c-.311.202-.418.417-.418.917v6.126c0 .488.107.715.418.905h-2.018c.322-.19.417-.417.417-.905V36.03h-3.595v2.956c0 .488.108.715.419.905h-2.018c.322-.19.417-.417.417-.905Zm8.379 0v-6.126c0-.5-.095-.715-.417-.917h2.017c-.31.202-.417.417-.417.917v6.126c0 .488.107.715.417.905h-2.017c.322-.19.417-.417.417-.905Zm3.585 0v-6.126c0-.5-.096-.715-.418-.917h3.057c.956 0 1.672.155 2.306.5 1.218.644 1.97 1.978 1.97 3.468 0 .906-.299 1.824-.8 2.48a3.7 3.7 0 0 1-.98.893c-.716.429-1.445.607-2.496.607h-3.057c.322-.19.418-.417.418-.905Zm2.866.012c1.732 0 2.771-1.156 2.771-3.075 0-1.93-1.039-3.086-2.771-3.086h-1.684v6.16h1.684ZM.32 51.091c.813.631 1.553.893 2.52.893 1.183 0 1.96-.56 1.96-1.43 0-.393-.18-.75-.49-.953a2.587 2.587 0 0 0-.657-.322 41.55 41.55 0 0 0-.765-.274c-.8-.298-1.099-.429-1.47-.655-.596-.37-.883-.834-.883-1.478 0-1.406 1.099-2.216 3.034-2.216.465 0 .836.035 1.48.142l.192.037.179 1.382c-.358-.226-.502-.31-.729-.405a3.683 3.683 0 0 0-1.337-.274c-.968 0-1.589.429-1.589 1.096 0 .239.096.477.24.632.262.262.608.428 1.6.774 1.099.381 1.385.512 1.767.846.418.345.657.906.657 1.513 0 1.502-1.338 2.49-3.392 2.49-.62 0-1.278-.095-2.126-.285l-.19-1.513Zm13.003-4.994c-.37-.19-.513-.262-.764-.333a3.727 3.727 0 0 0-1.218-.19c-1.912 0-3.19 1.274-3.19 3.193 0 1.942 1.398 3.217 3.5 3.217.717 0 1.314-.166 2.126-.596l-.334 1.335a9.52 9.52 0 0 1-1.78.167c-2.89 0-4.802-1.633-4.802-4.1 0-2.466 1.923-4.135 4.766-4.135.502 0 .884.036 1.54.155l.156 1.287Zm1.433 5.745v-6.126c0-.5-.096-.715-.418-.917h2.018c-.31.202-.418.417-.418.917v2.288h3.595v-2.288c0-.5-.096-.715-.418-.917h2.019c-.31.202-.418.417-.418.917v6.126c0 .488.107.715.418.905h-2.019c.323-.19.418-.417.418-.905v-2.956h-3.595v2.956c0 .488.108.715.418.905h-2.018c.322-.19.418-.417.418-.905Zm11.495-7.174c2.46 0 4.288 1.74 4.288 4.087 0 2.348-1.852 4.136-4.276 4.136-2.424 0-4.216-1.728-4.216-4.052 0-2.42 1.755-4.171 4.204-4.171Zm.035 7.352c1.756 0 2.986-1.346 2.986-3.265 0-1.883-1.242-3.194-3.045-3.194-1.768 0-2.939 1.3-2.939 3.29 0 1.858 1.243 3.17 2.998 3.17Zm9.391-7.352c2.46 0 4.288 1.74 4.288 4.087 0 2.348-1.852 4.136-4.276 4.136-2.425 0-4.216-1.728-4.216-4.052 0-2.42 1.755-4.171 4.204-4.171Zm.036 7.352c1.755 0 2.986-1.346 2.986-3.265 0-1.883-1.242-3.194-3.046-3.194-1.767 0-2.938 1.3-2.938 3.29 0 1.858 1.242 3.17 2.998 3.17Zm5.547-.178v-6.126c0-.5-.096-.715-.418-.917h2.018c-.31.202-.418.417-.418.917v6.137h2.759c.43-.023.633-.047.872-.13a2 2 0 0 0 .693-.382l-.466 1.406h-5.458c.322-.19.418-.417.418-.905Zm12.323-7.174c2.46 0 4.288 1.74 4.288 4.087 0 2.348-1.851 4.136-4.276 4.136s-4.216-1.728-4.216-4.052c0-2.42 1.756-4.171 4.204-4.171Zm.036 7.352c1.756 0 2.986-1.346 2.986-3.265 0-1.883-1.243-3.194-3.046-3.194-1.768 0-2.938 1.3-2.938 3.29 0 1.858 1.242 3.17 2.998 3.17Zm5.545-.178v-6.126c0-.5-.095-.715-.418-.917h4.79l.143 1.239-.048-.036c-.37-.262-.55-.31-1.123-.31h-2.161v2.205h2.328c.419 0 .49 0 .622-.071l.071 1.239c-.179-.143-.25-.179-.358-.214-.131-.048-.322-.06-.693-.06h-1.97v3.05c0 .489.107.716.418.906h-2.019c.323-.19.418-.417.418-.905ZM71.89 52.89c-1.29 0-2.222-.298-3.022-.941-.944-.763-1.47-1.895-1.47-3.146 0-2.443 1.888-4.147 4.575-4.147.31 0 .621.024.944.06.394.059.62.095 1.337.273l.167 1.49c-.908-.68-1.624-.941-2.508-.941-1.947 0-3.225 1.275-3.225 3.24 0 1.967 1.314 3.242 3.344 3.242.574 0 1.075-.107 1.589-.346v-2.05c0-.5-.096-.714-.418-.917h2.018c-.31.203-.418.417-.418.918v2.264c0 .286.024.393.12.524-1.218.334-2.114.477-3.034.477Zm8.35-8.222c2.46 0 4.287 1.74 4.287 4.087 0 2.348-1.851 4.136-4.276 4.136s-4.216-1.728-4.216-4.052c0-2.42 1.756-4.171 4.204-4.171Zm.035 7.352c1.756 0 2.986-1.346 2.986-3.265 0-1.883-1.242-3.194-3.046-3.194-1.767 0-2.938 1.3-2.938 3.29 0 1.858 1.242 3.17 2.998 3.17Zm4.955-5.946c-.155-.322-.25-.5-.346-.668-.143-.238-.299-.405-.573-.607h2.114c-.168.143-.203.214-.203.381 0 .131.083.429.203.679l2.185 4.695 2.258-4.802c.119-.251.19-.489.19-.608 0-.131-.059-.227-.19-.346h1.791c-.286.214-.37.298-.477.453-.084.131-.18.31-.395.763l-3.32 6.876-3.237-6.816Zm11.911 5.779c.944 0 1.243-.071 1.72-.429l.072-.06-.37 1.383H93.26c.322-.19.417-.417.417-.905v-6.126c0-.5-.095-.715-.417-.917h5.028l.144 1.239-.048-.036c-.37-.262-.55-.31-1.123-.31H94.86v2.205h2.413c.418 0 .478 0 .62-.071l.06 1.239c-.167-.143-.238-.179-.358-.214-.12-.048-.322-.06-.692-.06H94.86v3.063h2.281Zm2.802-.011v-6.126c0-.5-.096-.715-.418-.917h1.935c.143 0 .37.011.681.011.824.012 1.11.036 1.516.155.788.239 1.302.942 1.302 1.8 0 1.001-.597 1.644-1.743 1.883.155.107.215.143.31.238.071.06.143.143.251.262.071.096.143.179.203.263.012.023.059.083.143.202l1.565 2.134.143.19c.179.25.287.37.442.477.144.119.227.166.621.334h-1.958l-2.078-2.908c-.299-.417-.55-.68-.813-.834-.262-.144-.442-.191-.919-.203v3.039c0 .488.107.715.417.906h-2.018c.323-.191.418-.418.418-.906Zm1.816-3.85c.394 0 .645-.023.884-.071.597-.107.991-.56.991-1.144 0-.346-.143-.644-.383-.81-.286-.215-.68-.286-1.468-.286-.168 0-.311 0-.657.011v2.276c.31.024.442.024.633.024Zm6.108 3.85v-6.066c0-.5-.119-.775-.418-.977h1.422l4.49 5.303v-4.386c0-.5-.095-.715-.418-.917h1.78c-.31.202-.418.417-.418.917v7.174l-5.494-6.47v5.422c0 .488.107.715.418.906h-1.78c.322-.191.418-.418.418-.906Zm7.91-.012.728-5.923c.024-.131.037-.357.037-.464 0-.275-.072-.418-.335-.644h1.612l2.437 5.493 2.388-5.493h1.589c-.275.226-.335.357-.335.679 0 .107 0 .178.024.357l.788 5.887c.048.406.072.5.155.644.06.12.132.203.311.381h-1.923c.227-.178.299-.357.299-.703 0-.119 0-.262-.012-.357l-.669-5.077-2.735 6.28-2.771-6.28-.657 5.291c-.012.06-.012.155-.012.226 0 .262.048.37.299.62h-1.684c.299-.19.406-.405.466-.917Zm14.019.023c.943 0 1.242-.071 1.72-.429l.071-.06-.37 1.383h-5.303c.323-.19.418-.417.418-.905v-6.126c0-.5-.095-.715-.418-.917h5.028l.144 1.239-.048-.036c-.37-.262-.55-.31-1.123-.31h-2.4v2.205h2.412c.418 0 .477 0 .621-.071l.06 1.239c-.167-.143-.239-.179-.359-.214-.119-.048-.322-.06-.692-.06h-2.042v3.063h2.281Zm2.804-.011v-6.066c0-.5-.12-.775-.418-.977h1.421l4.491 5.303v-4.386c0-.5-.096-.715-.418-.917h1.78c-.311.202-.419.417-.419.917v7.174l-5.494-6.47v5.422c0 .488.108.715.418.906h-1.779c.322-.191.418-.418.418-.906Zm10.094 0v-6.15h-1.302c-.705 0-.932.096-1.314.56l.203-1.453h6.008l.203 1.453c-.203-.25-.299-.333-.454-.417-.203-.107-.454-.143-.86-.143h-1.302v6.15c0 .488.108.715.418.905h-2.018c.322-.19.418-.417.418-.905Z" fill="#75787B"/></g><defs><clipPath id="a"><path fill="#fff" d="M0 0h195.391v56H0z"/></clipPath></defs></svg>